<?xml version="1.0" standalone="no"?><!DOCTYPE svg PUBLIC "-//W3C//DTD SVG 1.1//EN" "http://www.w3.org/Graphics/SVG/1.1/DTD/svg11.dtd"><svg t="1771852332899" class="icon" viewBox="0 0 1024 1024" version="1.1" xmlns="http://www.w3.org/2000/svg" p-id="7410" data-spm-anchor-id="a313x.search_index.0.i44.3ed13a81FRAWuC" xmlns:xlink="http://www.w3.org/1999/xlink" width="200" height="200"><path d="M544.433796 814.143058l-54.067543-31.421773 8.729975-5.047736 54.067543 31.421773-8.729975 5.047736z" fill="#028a34" p-id="7411" data-spm-anchor-id="a313x.search_index.0.i54.3ed13a81FRAWuC" class=""></path><path d="M553.163771 809.095322l-54.067543-31.421773 127.558898-618.539451 54.067544 31.421774-127.558899 618.53945z" fill="#028a34" p-id="7412" data-spm-anchor-id="a313x.search_index.0.i46.3ed13a81FRAWuC" class=""></path><path d="M680.72267 190.555872l-54.067544-31.421774c0-0.245483 0.107399-0.490965 0.153427-0.736447l54.067543 31.421773c0 0.245483-0.107399 0.490965-0.153426 0.736448" fill="#028a34" p-id="7413"></path><path d="M680.876096 189.819424l-54.067543-31.421773q1.994546-9.359024 3.068532-17.16844l54.067544 31.421773q-1.012616 7.809415-3.068533 17.16844" fill="#028a34" p-id="7414" data-spm-anchor-id="a313x.search_index.0.i49.3ed13a81FRAWuC" class=""></path><path d="M683.898601 172.650984l-54.067544-31.421773q3.160589-24.318121-3.283329-33.447005a12.703725 12.703725 0 0 0-4.004435-3.74361L676.549466 135.46037a12.826466 12.826466 0 0 1 4.004435 3.728267q6.428576 9.205598 3.283329 33.462347" fill="#028a34" p-id="7415" data-spm-anchor-id="a313x.search_index.0.i48.3ed13a81FRAWuC" class=""></path><path d="M633.758779 149.099997L579.691235 117.678224l-0.076713-28.767493 54.067544 31.421773 0.076713 28.767493z" fill="#028a34" p-id="7416" data-spm-anchor-id="a313x.search_index.0.i52.3ed13a81FRAWuC" class=""></path><path d="M633.682066 120.332504l-54.067544-31.421773L733.624171 0l54.067544 31.421773-154.009649 88.910731z" fill="#028a34" p-id="7417" data-spm-anchor-id="a313x.search_index.0.i47.3ed13a81FRAWuC" class=""></path><path d="M517.95236 1023.969315l-54.067543-31.421774L304.520578 345.117857l54.067544 31.421773L517.95236 1023.969315z" fill="#028a34" p-id="7418" data-spm-anchor-id="a313x.search_index.0.i43.3ed13a81FRAWuC" class=""></path><path d="M358.588122 376.53963l-54.067544-31.421773q-4.357316-31.789997-15.020467-42.744659a17.674748 17.674748 0 0 0-3.743609-2.945791l54.067543 31.421773a17.183782 17.183782 0 0 1 3.789638 2.945792q10.647808 11.000689 15.020467 42.744658" fill="#028a34" p-id="7419" data-spm-anchor-id="a313x.search_index.0.i50.3ed13a81FRAWuC" class=""></path><path d="M290.3593 347.357886L236.291757 315.936112 236.215043 287.183962l54.067544 31.421774 0.076713 28.75215z" fill="#028a34" p-id="7420" data-spm-anchor-id="a313x.search_index.0.i51.3ed13a81FRAWuC" class="selected"></path><path d="M787.691715 31.421773l0.076713 28.75215-16.99967 9.819305Q753.753745 79.781847 738.91739 103.087351T715.688598 170.303557L543.068299 1009.547212l-25.039225 14.452788-159.364239-647.46037q-4.418687-31.774655-15.051152-42.744658t-31.943424 1.288783l-21.264931 12.274131v-28.75215L472.49205 213.370411l0.092056 28.767493-16.968985 9.803962q-21.264931 12.27413-27.616793 30.685325t-2.025231 40.335861l118.430014 491.226034 8.729975-5.047736 127.589584-618.585478q8.484493-39.185161-0.107399-51.367235t-34.091397 2.546882l-12.765095 7.364478-0.076713-28.767493z" fill="#ff5e00" p-id="7421" data-spm-anchor-id="a313x.search_index.0.i42.3ed13a81FRAWuC" class=""></path><path d="M290.282587 318.605736L236.215043 287.183962l182.255492-105.235324 54.067543 31.421773-182.255491 105.235325z" fill="#028a34" p-id="7422" data-spm-anchor-id="a313x.search_index.0.i45.3ed13a81FRAWuC" class=""></path></svg>